# xmcd
#
# Track frame offsets: 
#        150
#        17080
#        32707
#        51349
#        65749
#        80090
#        96553
#        113168
#        128734
#        151188
#        170967
#        190008
#        212141
#        232362
#        246779
#        269657
#
# Disc length: 3831 seconds
#
# Revision: 0
# Processed by: cddbd v1.5.2PL0 Copyright (c) Steve Scherf et al.
# Submitted via: ExactAudioCopy v0.95a4
#
DISCID=f30ef510
DTITLE=Hornbuckle - Virtue and Vice
DYEAR=2013
DGENRE=Blues
TTITLE0=Done Fooling Around
TTITLE1=Complicated
TTITLE2='59 Pontiac Hearse
TTITLE3=Slave To The Benjamins
TTITLE4=Blue Note
TTITLE5=Lip
TTITLE6=Kathleen
TTITLE7=Ride Away
TTITLE8=Bird Of A Feather
TTITLE9=One Foot In The Grave
TTITLE10=Angels, Addicts, Poets And Thieves
TTITLE11=Moment In Time
TTITLE12=Remorse
TTITLE13=Knife In Your Hand
TTITLE14=Beautiful Rain
TTITLE15=Virtue And Vice
EXTD=
EXTT0=
EXTT1=
EXTT2=
EXTT3=
EXTT4=
EXTT5=
EXTT6=
EXTT7=
EXTT8=
EXTT9=
EXTT10=
EXTT11=
EXTT12=
EXTT13=
EXTT14=
EXTT15=
PLAYORDER=
